{
	"asset":{
		"generator":"Khronos glTF Blender I/O v4.2.57",
		"version":"2.0"
	},
	"scene":0,
	"scenes":[
		{
			"name":"Scene",
			"nodes":[
				0
			]
		}
	],
	"nodes":[
		{
			"mesh":0,
			"name":"wood panel",
			"rotation":[
				0.5,
				0.5,
				-0.5,
				0.5
			],
			"scale":[
				3.668562173843384,
				3.66733980178833,
				3.6685609817504883
			],
			"translation":[
				-43.09723663330078,
				-1.1990516185760498,
				13.91288948059082
			]
		}
	],
	"meshes":[
		{
			"name":"Plane.035",
			"primitives":[
				{
					"attributes":{
						"POSITION":0,
						"NORMAL":1,
						"TEXCOORD_0":2
					},
					"indices":3
				}
			]
		}
	],
	"accessors":[
		{
			"bufferView":0,
			"componentType":5126,
			"count":13024,
			"max":[
				0.5995075702667236,
				0.014044234529137611,
				0.0003072023391723633
			],
			"min":[
				-0.0003002286539413035,
				-2.8610238587134518e-06,
				-0.5995059013366699
			],
			"type":"VEC3"
		},
		{
			"bufferView":1,
			"componentType":5126,
			"count":13024,
			"type":"VEC3"
		},
		{
			"bufferView":2,
			"componentType":5126,
			"count":13024,
			"type":"VEC2"
		},
		{
			"bufferView":3,
			"componentType":5123,
			"count":51294,
			"type":"SCALAR"
		}
	],
	"bufferViews":[
		{
			"buffer":0,
			"byteLength":156288,
			"byteOffset":0,
			"target":34962
		},
		{
			"buffer":0,
			"byteLength":156288,
			"byteOffset":156288,
			"target":34962
		},
		{
			"buffer":0,
			"byteLength":104192,
			"byteOffset":312576,
			"target":34962
		},
		{
			"buffer":0,
			"byteLength":102588,
			"byteOffset":416768,
			"target":34963
		}
	],
	"buffers":[
		{
			"byteLength":519356,
			"uri":"WallPanel.bin"
		}
	]
}
